<?xml version="1.0" encoding="UTF-8" standalone="no"?>
<svg
   width="793.70081"
   height="1122.5197"
   viewBox="0 0 210 297"
   version="1.1"
   id="svg8"
   inkscape:version="1.1 (c68e22c387, 2021-05-23)"
   sodipodi:docname="test.svg"
   xmlns:inkscape="http://www.inkscape.org/namespaces/inkscape"
   xmlns:sodipodi="http://sodipodi.sourceforge.net/DTD/sodipodi-0.dtd"
   xmlns="http://www.w3.org/2000/svg"
   xmlns:svg="http://www.w3.org/2000/svg"
   xmlns:rdf="http://www.w3.org/1999/02/22-rdf-syntax-ns#"
   xmlns:cc="http://creativecommons.org/ns#"
   xmlns:dc="http://purl.org/dc/elements/1.1/">
  <defs
     id="defs2" />
  <sodipodi:namedview
     inkscape:window-maximized="1"
     inkscape:window-y="-8"
     inkscape:window-x="-8"
     inkscape:window-height="1017"
     inkscape:window-width="1920"
     inkscape:guide-bbox="true"
     showguides="true"
     id="base"
     pagecolor="#ffffff"
     bordercolor="#666666"
     borderopacity="1.0"
     inkscape:pageopacity="0.0"
     inkscape:pageshadow="2"
     inkscape:zoom="1.4734709"
     inkscape:cx="314.22406"
     inkscape:cy="166.61341"
     inkscape:document-units="px"
     inkscape:current-layer="layer1"
     inkscape:document-rotation="0"
     showgrid="true"
     units="px"
     showborder="false"
     objecttolerance="20"
     gridtolerance="10"
     inkscape:showpageshadow="false"
     inkscape:pagecheckerboard="0">
    <inkscape:grid
       type="xygrid"
       id="grid833"
       color="#808080"
       opacity="0.1254902"
       empcolor="#404040"
       empopacity="0.25098039"
       dotted="false"
       spacingx="4.2333333"
       spacingy="4.2333333"
       empspacing="4" />
  </sodipodi:namedview>
  <metadata
     id="metadata5">
    <rdf:RDF>
      <cc:Work
         rdf:about="">
        <dc:format>image/svg+xml</dc:format>
        <dc:type
           rdf:resource="http://purl.org/dc/dcmitype/StillImage" />
      </cc:Work>
    </rdf:RDF>
  </metadata>
  <g
     inkscape:label="Layer 1"
     inkscape:groupmode="layer"
     id="layer1">
    <rect
       style="fill:#4d4d4d;fill-rule:evenodd;stroke-width:0.220486"
       id="rect845"
       width="169.33333"
       height="95.25"
       x="0"
       y="-2.3147202e-09" />
    <rect
       style="fill:#4d4d4d;fill-opacity:1;fill-rule:evenodd;stroke-width:0.423334"
       id="rect973"
       width="42.333332"
       height="84.666664"
       x="44.449989"
       y="4.2333331" />
    <rect
       style="fill:#ff0000;fill-rule:evenodd;stroke-width:0.264583"
       id="rect847"
       width="4.2333331"
       height="4.2333331"
       x="0"
       y="2.934988e-07" />
    <rect
       style="fill:#808080;fill-rule:evenodd;stroke-width:0.119663"
       id="rect2172"
       width="12.7"
       height="12.699999"
       x="29.633329"
       y="4.2333331" />
    <rect
       style="fill:#0000ff;fill-rule:evenodd;stroke-width:0.132291"
       id="rect2438"
       width="4.2333331"
       height="4.2333331"
       x="44.450001"
       y="84.756447" />
    <rect
       style="fill:#0000ff;fill-rule:evenodd;stroke-width:0.132291"
       id="rect2522"
       width="4.2333331"
       height="4.2333331"
       x="44.450001"
       y="76.289787" />
    <rect
       style="fill:#0000ff;fill-rule:evenodd;stroke-width:0.132291"
       id="rect2524"
       width="4.2333331"
       height="4.2333331"
       x="44.450001"
       y="67.823128" />
    <rect
       style="fill:#0000ff;fill-rule:evenodd;stroke-width:0.132291"
       id="rect2526"
       width="4.2333331"
       height="4.2333331"
       x="44.450001"
       y="59.356468" />
    <rect
       style="fill:#0000ff;fill-rule:evenodd;stroke-width:0.132291"
       id="rect2528"
       width="4.2333331"
       height="4.2333331"
       x="44.450001"
       y="50.889809" />
    <rect
       style="fill:#0000ff;fill-rule:evenodd;stroke-width:0.132291"
       id="rect2530"
       width="4.2333331"
       height="4.2333331"
       x="44.450001"
       y="42.423141" />
    <rect
       style="fill:#0000ff;fill-rule:evenodd;stroke-width:0.132291"
       id="rect2532"
       width="4.2333331"
       height="4.2333331"
       x="44.450001"
       y="33.956448" />
    <rect
       style="fill:#0000ff;fill-rule:evenodd;stroke-width:0.132291"
       id="rect2552"
       width="4.2333331"
       height="4.2333331"
       x="44.450001"
       y="25.489782" />
    <rect
       style="fill:#0000ff;fill-rule:evenodd;stroke-width:0.132291"
       id="rect2554"
       width="4.2333331"
       height="4.2333331"
       x="44.450001"
       y="17.023115" />
    <rect
       style="fill:#0000ff;fill-rule:evenodd;stroke-width:0.132291"
       id="rect2576"
       width="4.2333331"
       height="4.2333331"
       x="44.450001"
       y="8.5564489" />
    <rect
       style="fill:#0000ff;fill-rule:evenodd;stroke-width:0.132291"
       id="rect2660"
       width="4.2333331"
       height="4.2333331"
       x="52.916676"
       y="84.756447" />
    <rect
       style="fill:#0000ff;fill-rule:evenodd;stroke-width:0.132291"
       id="rect2662"
       width="4.2333331"
       height="4.2333331"
       x="61.383335"
       y="84.756447" />
    <rect
       style="fill:#0000ff;fill-rule:evenodd;stroke-width:0.132291"
       id="rect2687"
       width="4.2333331"
       height="4.2333331"
       x="69.849991"
       y="84.756447" />
    <rect
       style="fill:#0000ff;fill-rule:evenodd;stroke-width:0.132291"
       id="rect2689"
       width="4.2333331"
       height="4.2333331"
       x="78.31665"
       y="84.756447" />
    <path
       id="rect2771"
       style="fill:#666666;fill-rule:evenodd;stroke-width:0.119663"
       d="m 88.899999,4.2333333 v 12.6999997 12.7 12.7 12.7 12.699995 H 101.6 v -12.699995 -12.7 -12.7 -12.7 -12.6999997 z" />
    <path
       id="rect2777"
       style="fill:#0000ff;fill-rule:evenodd;stroke-width:0.0661455"
       d="M 35.98333,8.4666666 V 10.583333 H 33.866665 V 12.7 H 35.98333 38.1 40.216665 V 10.583333 H 38.1 V 8.4666666 Z" />
    <rect
       style="fill:#cccccc;fill-opacity:1;fill-rule:evenodd;stroke-width:0.187089"
       id="rect2996"
       width="2.1166666"
       height="84.666664"
       x="42.333324"
       y="4.2333355" />
    <rect
       style="fill:#cccccc;fill-opacity:1;fill-rule:evenodd;stroke-width:0.187089"
       id="rect3042"
       width="42.333332"
       height="2.1166666"
       x="44.449993"
       y="88.900002" />
    <rect
       style="fill:#cccccc;fill-opacity:1;fill-rule:evenodd;stroke-width:0.187089"
       id="rect3044"
       width="2.1166666"
       height="84.666664"
       x="86.783333"
       y="4.2333355" />
    <rect
       style="fill:#cccccc;fill-opacity:1;fill-rule:evenodd;stroke-width:0.187089"
       id="rect3046"
       width="12.700001"
       height="2.1166666"
       x="88.900002"
       y="67.73333" />
    <rect
       style="fill:#cccccc;fill-opacity:1;fill-rule:evenodd;stroke-width:0.187089"
       id="rect3048"
       width="2.1166666"
       height="63.5"
       x="101.60001"
       y="4.2333326" />
    <rect
       style="fill:#cccccc;fill-opacity:1;fill-rule:evenodd;stroke-width:0.187089"
       id="rect3050"
       width="12.700001"
       height="2.1166666"
       x="29.633329"
       y="16.933334" />
    <rect
       style="fill:#cccccc;fill-opacity:1;fill-rule:evenodd;stroke-width:0.187089"
       id="rect3052"
       width="2.1166666"
       height="12.7"
       x="27.516655"
       y="4.2333522" />
    <path
       id="path3756"
       style="fill:#cccccc;fill-opacity:1;fill-rule:evenodd;stroke-width:0.132298"
       d="m 42.333246,88.899948 c 0,0 0,0.0083 5e-4,0.0238 2.5e-4,0.0078 7.5e-4,0.01715 0.0012,0.0284 5e-4,0.01125 0.0013,0.0243 0.0023,0.03875 10e-4,0.0145 0.0022,0.03035 0.0039,0.0478 0.0015,0.01745 0.0036,0.03645 0.0059,0.05658 0.0022,0.02015 0.0051,0.04145 0.0083,0.06409 0.0032,0.0226 0.0067,0.0465 0.01085,0.07131 0.0041,0.0248 0.0087,0.05052 0.01395,0.07726 0.0052,0.02675 0.0111,0.05452 0.01758,0.08295 0.0033,0.0142 0.0065,0.02855 0.01008,0.04315 0.0036,0.01455 0.0074,0.02925 0.01138,0.0442 0.0039,0.01495 0.0079,0.03025 0.01215,0.04545 0.0042,0.01525 0.0088,0.0305 0.01343,0.046 0.0046,0.0155 0.0094,0.031 0.01447,0.04675 0.005,0.01575 0.0103,0.0316 0.01577,0.04755 0.0055,0.01595 0.01118,0.0322 0.01705,0.0483 0.0059,0.01615 0.01202,0.0323 0.01835,0.04855 0.0063,0.01625 0.01285,0.0327 0.01962,0.0491 0.0068,0.0164 0.01393,0.0326 0.0212,0.0491 0.0073,0.01645 0.01472,0.0331 0.02248,0.0496 0.0078,0.01655 0.01575,0.0331 0.02403,0.0496 0.0083,0.0165 0.01678,0.0331 0.02558,0.0496 0.0088,0.01655 0.0178,0.0329 0.02713,0.04935 0.0093,0.01645 0.01905,0.03295 0.02894,0.04935 0.0099,0.0164 0.02003,0.0328 0.03049,0.0491 0.01047,0.0163 0.02125,0.03245 0.0323,0.0486 0.01105,0.01615 0.02245,0.0321 0.03411,0.04805 0.01165,0.01595 0.02363,0.03205 0.03592,0.0478 0.01227,0.01575 0.0248,0.03125 0.03772,0.04675 0.01293,0.0155 0.02622,0.03075 0.03979,0.046 0.01357,0.01525 0.02736,0.0303 0.0416,0.0452 0.01425,0.0149 0.029,0.02985 0.04393,0.04445 0.01492,0.01455 0.0301,0.02895 0.04574,0.04315 0.01563,0.0142 0.03171,0.0283 0.04806,0.0421 0.01635,0.0138 0.03304,0.0272 0.05013,0.04055 0.01707,0.0134 0.03435,0.02665 0.0522,0.03955 0.01783,0.0129 0.03618,0.0256 0.05478,0.038 0.0186,0.0124 0.03771,0.02455 0.0571,0.03645 0.0097,0.0059 0.0193,0.0118 0.0292,0.0176 0.0099,0.0058 0.01987,0.0114 0.02998,0.01705 0.0101,0.0056 0.02045,0.0113 0.03075,0.0168 0.0103,0.0055 0.0205,0.0109 0.03101,0.01625 0.0105,0.0054 0.02107,0.0108 0.03178,0.016 0.0107,0.0052 0.02165,0.0102 0.03256,0.01525 0.01093,0.0051 0.02195,0.0101 0.03307,0.015 0.01112,0.005 0.02225,0.0095 0.03359,0.0142 0.01135,0.0045 0.0228,0.0094 0.03436,0.01395 0.01155,0.0045 0.02338,0.0088 0.03514,0.0132 0.01178,0.0045 0.02367,0.0087 0.03565,0.0129 0.012,0.004 0.02395,0.0084 0.03618,0.0124 0.0122,0.004 0.0245,0.0078 0.03695,0.01165 0.01243,0.004 0.02506,0.0075 0.03773,0.0111 0.01265,0.0035 0.02535,0.0071 0.03824,0.0106 0.0129,0.0035 0.0259,0.0066 0.03901,0.0098 0.01312,0.003 0.02644,0.0066 0.03979,0.0096 0.01335,0.003 0.02672,0.0057 0.04031,0.0085 0.01357,0.003 0.02726,0.0056 0.04108,0.0082 0.01383,0.0025 0.02781,0.0051 0.04186,0.0075 0.01405,0.0025 0.02834,0.0045 0.04263,0.0067 0.0143,0.0025 0.02862,0.004 0.04315,0.0062 0.01452,0.002 0.02915,0.0035 0.04392,0.0054 0.01478,0.0015 0.02968,0.0035 0.0447,0.005 0.01503,0.0015 0.03021,0.0025 0.04548,0.004 0.01528,0.001 0.03073,0.0025 0.04626,0.0035 0.01552,0.001 0.03099,0.002 0.04677,0.003 0.01577,0.001 0.03177,0.0015 0.0478,0.002 0.01602,5e-4 0.03204,0.001 0.04832,0.001 0.01628,2.5e-4 0.03281,2.5e-4 0.04935,2.5e-4 v -2.11665 z" />
    <path
       id="path3937"
       style="fill:#cccccc;fill-opacity:1;fill-rule:evenodd;stroke-width:0.132267"
       d="m 88.900704,88.899948 c 0,0 0,0.0083 -5e-4,0.0238 -2.5e-4,0.0078 -5e-4,0.01715 -0.0015,0.0284 -5e-4,0.01125 -0.0015,0.0243 -0.0025,0.03875 -10e-4,0.0145 -0.0025,0.03035 -0.004,0.0478 -0.0015,0.01745 -0.0035,0.03645 -0.0059,0.05658 -0.0025,0.02015 -0.0051,0.04145 -0.0083,0.06409 -0.003,0.0226 -0.0067,0.0465 -0.01085,0.07131 -0.004,0.0248 -0.0087,0.05052 -0.01395,0.07726 -0.0052,0.02675 -0.0111,0.05452 -0.01755,0.08295 -0.0035,0.0142 -0.0065,0.02855 -0.0101,0.04315 -0.0035,0.01455 -0.0075,0.02925 -0.01135,0.0442 -0.004,0.01495 -0.0079,0.03025 -0.01215,0.04545 -0.004,0.01525 -0.0088,0.0305 -0.01345,0.046 -0.0045,0.0155 -0.0095,0.031 -0.01445,0.04675 -0.005,0.01575 -0.0103,0.0316 -0.01575,0.04755 -0.0054,0.01595 -0.01115,0.0322 -0.01705,0.0483 -0.0059,0.01615 -0.012,0.0323 -0.01835,0.04855 -0.0064,0.01625 -0.01285,0.0327 -0.01965,0.0491 -0.0068,0.0164 -0.0139,0.0326 -0.0212,0.0491 -0.0072,0.01645 -0.0147,0.0331 -0.0225,0.0496 -0.0078,0.01655 -0.01575,0.0331 -0.02405,0.0496 -0.0083,0.0165 -0.0168,0.0331 -0.0256,0.0496 -0.0088,0.01655 -0.0178,0.0329 -0.02715,0.04935 -0.0093,0.01645 -0.01905,0.03295 -0.02895,0.04935 -0.0099,0.0164 -0.02,0.0328 -0.0305,0.0491 -0.01045,0.0163 -0.02125,0.03245 -0.0323,0.0486 -0.01105,0.01615 -0.02245,0.0321 -0.0341,0.04805 -0.01165,0.01595 -0.02365,0.03205 -0.0359,0.0478 -0.0123,0.01575 -0.0248,0.03125 -0.03775,0.04675 -0.0129,0.0155 -0.0262,0.03075 -0.0398,0.046 -0.0136,0.01525 -0.02735,0.0303 -0.0416,0.0452 -0.01425,0.0149 -0.029,0.02985 -0.04395,0.04445 -0.01495,0.01455 -0.0301,0.02895 -0.04575,0.04315 -0.01565,0.0142 -0.0317,0.0283 -0.04805,0.0421 -0.01635,0.0138 -0.03305,0.0272 -0.05011,0.04055 -0.0171,0.0134 -0.03435,0.02665 -0.05217,0.03955 -0.01785,0.0129 -0.0362,0.0256 -0.05476,0.038 -0.0186,0.0124 -0.0377,0.02455 -0.05708,0.03645 -0.0097,0.0059 -0.0193,0.0118 -0.0292,0.0176 -0.0099,0.0058 -0.0199,0.0114 -0.03,0.01705 -0.0101,0.0056 -0.02045,0.0113 -0.03075,0.0168 -0.0103,0.0055 -0.0205,0.0109 -0.031,0.01625 -0.0105,0.0054 -0.0211,0.0108 -0.0318,0.016 -0.0107,0.0052 -0.02165,0.0102 -0.03255,0.01525 -0.0109,0.0051 -0.02195,0.0101 -0.0331,0.015 -0.01115,0.005 -0.02225,0.0095 -0.0336,0.0142 -0.01135,0.0045 -0.0228,0.0094 -0.03435,0.01395 -0.01155,0.0045 -0.02335,0.0088 -0.03515,0.0132 -0.01175,0.0045 -0.02365,0.0087 -0.03565,0.0129 -0.012,0.004 -0.02395,0.0084 -0.0362,0.0124 -0.0122,0.004 -0.0245,0.0078 -0.03695,0.01165 -0.01245,0.004 -0.02505,0.0075 -0.03775,0.0111 -0.01265,0.0035 -0.02535,0.0071 -0.03825,0.0106 -0.0129,0.0035 -0.0259,0.0066 -0.039,0.0098 -0.0131,0.003 -0.02645,0.0066 -0.0398,0.0096 -0.01335,0.003 -0.0267,0.0057 -0.0403,0.0085 -0.0136,0.003 -0.02725,0.0056 -0.0411,0.0082 -0.0138,0.0025 -0.0278,0.0051 -0.04185,0.0075 -0.01405,0.0025 -0.02835,0.0045 -0.04265,0.0067 -0.0143,0.0025 -0.0286,0.004 -0.04315,0.0062 -0.01455,0.002 -0.02915,0.0035 -0.04395,0.0054 -0.0148,0.0015 -0.0297,0.0035 -0.0447,0.005 -0.015,0.0015 -0.0302,0.0025 -0.0455,0.004 -0.01525,0.001 -0.03075,0.0025 -0.04625,0.0035 -0.0155,0.001 -0.031,0.002 -0.04675,0.003 -0.01575,0.001 -0.0318,0.0015 -0.0478,0.002 -0.016,5e-4 -0.03205,0.001 -0.0483,0.001 -0.0163,2.5e-4 -0.0328,2.5e-4 -0.04935,2.5e-4 v -2.11665 z" />
    <path
       id="path3939"
       style="fill:#cccccc;fill-opacity:1;fill-rule:evenodd;stroke-width:0.132189"
       d="m 103.71718,67.733334 c 0,0 0,0.0083 -4.7e-4,0.0238 -2.5e-4,0.0077 -4.7e-4,0.0172 -0.002,0.0284 -4.7e-4,0.01125 -10e-4,0.0243 -0.002,0.03874 -0.001,0.0145 -0.002,0.03034 -0.004,0.04779 -10e-4,0.01745 -0.004,0.03644 -0.006,0.05657 -0.002,0.02015 -0.005,0.04149 -0.008,0.06408 -0.003,0.0226 -0.007,0.04649 -0.0108,0.0713 -0.004,0.0248 -0.009,0.0505 -0.014,0.07724 -0.005,0.02675 -0.0111,0.0545 -0.0175,0.08293 -0.003,0.0142 -0.006,0.0286 -0.0101,0.04314 -0.004,0.0146 -0.007,0.0293 -0.0114,0.04419 -0.004,0.01495 -0.008,0.03024 -0.0121,0.04549 -0.004,0.01525 -0.009,0.0305 -0.0135,0.04599 -0.004,0.0155 -0.009,0.031 -0.0144,0.04674 -0.005,0.01575 -0.0103,0.03159 -0.0157,0.04754 -0.005,0.01595 -0.0112,0.0322 -0.017,0.04829 -0.006,0.0161 -0.012,0.0323 -0.0183,0.04854 -0.006,0.01625 -0.0129,0.0327 -0.0197,0.04909 -0.007,0.01645 -0.0139,0.03265 -0.0212,0.04909 -0.007,0.01645 -0.0147,0.03309 -0.0225,0.04959 -0.008,0.0166 -0.0157,0.03309 -0.024,0.04959 -0.008,0.01655 -0.0168,0.0331 -0.0256,0.04959 -0.009,0.01655 -0.0178,0.03289 -0.0271,0.04934 -0.009,0.01645 -0.0191,0.03294 -0.0289,0.04934 -0.01,0.01645 -0.02,0.03279 -0.0305,0.04909 -0.0105,0.0163 -0.0213,0.03249 -0.0323,0.04854 -0.011,0.01615 -0.0224,0.03209 -0.0341,0.04804 -0.0117,0.01595 -0.0236,0.03204 -0.0359,0.04779 -0.0123,0.01575 -0.0248,0.03125 -0.0378,0.04674 -0.0129,0.0155 -0.0262,0.03074 -0.0398,0.04599 -0.0136,0.01525 -0.0273,0.03029 -0.0416,0.04519 -0.0143,0.01495 -0.029,0.02985 -0.0439,0.04444 -0.0149,0.01455 -0.0302,0.02895 -0.0457,0.04314 -0.0157,0.0142 -0.0316,0.02829 -0.0481,0.04209 -0.0164,0.0138 -0.0331,0.0272 -0.0501,0.04059 -0.0171,0.01335 -0.0344,0.02665 -0.0521,0.03954 -0.0178,0.0129 -0.0362,0.0256 -0.0547,0.03799 -0.0186,0.0124 -0.0377,0.02455 -0.057,0.03644 -0.01,0.0059 -0.0193,0.0118 -0.0292,0.01755 -0.01,0.0058 -0.0199,0.0114 -0.03,0.01705 -0.0101,0.0057 -0.0205,0.0113 -0.0307,0.0168 -0.0103,0.0055 -0.0205,0.01095 -0.031,0.0163 -0.0105,0.0054 -0.0211,0.01085 -0.0318,0.016 -0.0107,0.0052 -0.0217,0.0102 -0.0326,0.01525 -0.0109,0.0051 -0.022,0.0101 -0.0331,0.015 -0.0112,0.005 -0.0222,0.0095 -0.0336,0.0142 -0.0114,0.0045 -0.0228,0.0094 -0.0344,0.01395 -0.0115,0.0045 -0.0234,0.0088 -0.0352,0.0132 -0.0118,0.0045 -0.0237,0.0087 -0.0357,0.0129 -0.012,0.004 -0.0239,0.0084 -0.0362,0.0124 -0.0122,0.004 -0.0245,0.0078 -0.037,0.0116 -0.0125,0.004 -0.025,0.0075 -0.0378,0.0111 -0.0126,0.0035 -0.0254,0.0072 -0.0382,0.0106 -0.0129,0.0035 -0.0259,0.0066 -0.039,0.0098 -0.0131,0.003 -0.0265,0.0066 -0.0398,0.0096 -0.0134,0.003 -0.0267,0.0057 -0.0403,0.0085 -0.0136,0.003 -0.0273,0.0057 -0.0411,0.0083 -0.0138,0.0025 -0.0278,0.0051 -0.0418,0.0075 -0.0141,0.0025 -0.0284,0.0045 -0.0427,0.0067 -0.0143,0.0025 -0.0286,0.004 -0.0431,0.0062 -0.0145,0.002 -0.0292,0.0035 -0.0439,0.0054 -0.0148,0.002 -0.0297,0.0035 -0.0447,0.005 -0.015,0.0015 -0.0302,0.0025 -0.0455,0.004 -0.0152,0.001 -0.0307,0.002 -0.0463,0.0035 -0.0155,0.001 -0.031,0.002 -0.0467,0.003 -0.0158,4.75e-4 -0.0318,0.001 -0.0478,0.002 -0.016,4.7e-4 -0.032,0.001 -0.0483,0.001 -0.0163,2.5e-4 -0.0328,2.5e-4 -0.0494,2.5e-4 v -2.116312 z" />
    <path
       id="path3941"
       style="fill:#cccccc;fill-opacity:1;fill-rule:evenodd;stroke-width:0.132266"
       d="m 27.516655,16.933298 c 0,0 0,0.0083 5e-4,0.02377 2.5e-4,0.0078 5e-4,0.01718 0.0015,0.02842 5e-4,0.01124 0.0015,0.02429 0.0025,0.03875 0.001,0.01447 0.0025,0.03036 0.004,0.0478 0.0015,0.01744 0.0035,0.03643 0.0059,0.05658 0.0025,0.02016 0.0051,0.04147 0.0082,0.06408 0.003,0.02261 0.0067,0.04651 0.01084,0.07131 0.004,0.02481 0.0087,0.05051 0.01394,0.07725 0.0053,0.02675 0.0111,0.05452 0.01754,0.08294 0.0035,0.01421 0.0065,0.02857 0.01009,0.04315 0.0035,0.01459 0.0074,0.02926 0.01135,0.04418 0.004,0.01492 0.0078,0.03025 0.01215,0.04547 0.004,0.01523 0.0088,0.03049 0.01345,0.046 0.0045,0.01551 0.0094,0.03102 0.01444,0.04677 0.0051,0.01574 0.01029,0.03158 0.01574,0.04754 0.0054,0.01595 0.01114,0.03218 0.01704,0.04831 0.0059,0.01614 0.012,0.0323 0.01835,0.04857 0.0064,0.01628 0.01285,0.0327 0.01965,0.0491 0.0068,0.01639 0.0139,0.03262 0.02119,0.04909 0.0072,0.01647 0.01469,0.03309 0.02249,0.04961 0.0077,0.01652 0.01574,0.03308 0.02404,0.04961 0.0082,0.01654 0.01679,0.03309 0.02559,0.04961 0.0088,0.01652 0.01779,0.03288 0.02714,0.04935 0.0093,0.01647 0.01904,0.03296 0.02894,0.04935 0.0099,0.01639 0.01999,0.03281 0.03049,0.04909 0.01045,0.01628 0.02125,0.03245 0.03229,0.04857 0.01104,0.01613 0.02244,0.03211 0.03409,0.04806 0.01164,0.01595 0.02364,0.03205 0.03589,0.0478 0.01229,0.01574 0.02479,0.03127 0.03773,0.04677 0.0129,0.01551 0.02619,0.03077 0.03979,0.046 0.01359,0.01523 0.02734,0.03029 0.04158,0.04521 0.01425,0.01493 0.02899,0.02986 0.04394,0.04444 0.01495,0.01458 0.03009,0.02894 0.04574,0.04315 0.01564,0.01421 0.03169,0.02831 0.04803,0.04211 0.01634,0.0138 0.03304,0.02719 0.05011,0.04057 0.01709,0.01337 0.03433,0.02663 0.05218,0.03953 0.01784,0.0129 0.03618,0.02558 0.05475,0.03798 0.01859,0.01241 0.03768,0.02456 0.05708,0.03643 0.0097,0.0059 0.01929,0.01178 0.02919,0.01757 0.0099,0.0058 0.0199,0.0114 0.02999,0.01705 0.01009,0.0056 0.02044,0.01129 0.03074,0.01679 0.01029,0.0055 0.0205,0.01093 0.03099,0.01628 0.0105,0.0054 0.02109,0.01082 0.03179,0.01602 0.0107,0.0052 0.02164,0.01021 0.03254,0.01525 0.0109,0.005 0.02194,0.01011 0.03309,0.01499 0.01114,0.0048 0.02224,0.0095 0.03359,0.01421 0.01134,0.0047 0.02279,0.0094 0.03433,0.01395 0.01154,0.0046 0.02334,0.0088 0.03514,0.01318 0.01174,0.0043 0.02364,0.0087 0.03563,0.01292 0.01199,0.0042 0.02394,0.0084 0.03618,0.0124 0.0122,0.004 0.02449,0.0078 0.03693,0.01163 0.01244,0.0038 0.02504,0.0075 0.03774,0.01111 0.01264,0.0036 0.02534,0.0072 0.03824,0.01059 0.0129,0.0034 0.02589,0.0066 0.03899,0.0098 0.01309,0.0032 0.02644,0.0065 0.03978,0.0096 0.01335,0.003 0.02669,0.0057 0.04029,0.0085 0.01359,0.0028 0.02724,0.0057 0.04108,0.0083 0.0138,0.0026 0.02779,0.0051 0.04183,0.0075 0.01405,0.0024 0.02834,0.0046 0.04264,0.0067 0.0143,0.0022 0.02859,0.0042 0.04313,0.0062 0.01455,0.002 0.02914,0.0037 0.04394,0.0054 0.01479,0.0017 0.02969,0.0035 0.04469,0.0049 0.01499,0.0015 0.03019,0.0027 0.04548,0.0039 0.01525,0.0012 0.03074,0.0023 0.04623,0.0034 0.01549,0.001 0.03099,0.0021 0.04673,0.0028 0.01574,7.5e-4 0.03179,0.0013 0.04779,0.0018 0.016,5e-4 0.03204,0.001 0.04828,0.0013 0.01629,2.5e-4 0.03279,2.5e-4 0.04933,2.5e-4 V 16.93326 Z" />
    <rect
       style="fill:#cccccc;fill-opacity:1;fill-rule:evenodd;stroke-width:0.177487"
       id="rect10837"
       width="76.199997"
       height="2.1166666"
       x="27.516663"
       y="2.1166666" />
    <text
       xml:space="preserve"
       style="font-weight:bold;font-size:5.29165px;line-height:1.25;font-family:Arial;-inkscape-font-specification:'Arial Bold';letter-spacing:0px;word-spacing:0px;fill:#999999;stroke-width:0.132291"
       x="21.346273"
       y="88.28643"
       id="text34191"><tspan
         sodipodi:role="line"
         id="tspan34189"
         style="font-size:5.29165px;fill:#999999;stroke-width:0.132291"
         x="21.346273"
         y="88.28643">Lines</tspan></text>
    <text
       xml:space="preserve"
       style="font-weight:bold;font-size:19.05px;line-height:1.25;font-family:Arial;-inkscape-font-specification:'Arial Bold';letter-spacing:0px;word-spacing:0px;fill:#1a1a1a;stroke-width:0.132291"
       x="18.294521"
       y="83.482346"
       id="text41407"><tspan
         sodipodi:role="line"
         id="tspan41405"
         style="font-size:19.05px;fill:#1a1a1a;stroke-width:0.132291"
         x="18.294521"
         y="83.482346">40</tspan></text>
    <text
       xml:space="preserve"
       style="font-weight:bold;font-size:19.05px;line-height:1.25;font-family:Arial;-inkscape-font-specification:'Arial Bold';letter-spacing:0px;word-spacing:0px;fill:#cccccc;stroke-width:0.132291"
       x="18.029938"
       y="83.217766"
       id="text36515"><tspan
         sodipodi:role="line"
         id="tspan36513"
         style="font-size:19.05px;fill:#cccccc;stroke-width:0.132291"
         x="18.029938"
         y="83.217766">40</tspan></text>
    <g
       id="g110756"
       transform="translate(0.41907329,0.08580178)">
      <text
         xml:space="preserve"
         style="font-weight:bold;font-size:9.525px;line-height:1.25;font-family:Arial;-inkscape-font-specification:'Arial Bold';letter-spacing:0px;word-spacing:0px;fill:#1a1a1a;fill-opacity:1;stroke-width:0.132291"
         x="115.74903"
         y="21.702711"
         id="text85211"><tspan
           sodipodi:role="line"
           id="tspan85209"
           style="font-size:9.525px;fill:#1a1a1a;fill-opacity:1;stroke-width:0.132291"
           x="115.74903"
           y="21.702711">10,985,518</tspan></text>
      <text
         xml:space="preserve"
         style="font-weight:bold;font-size:5.29165px;line-height:1.25;font-family:Arial;-inkscape-font-specification:'Arial Bold';letter-spacing:0px;word-spacing:0px;fill:#999999;fill-opacity:1;stroke-width:0.132291"
         x="116.04669"
         y="77.073158"
         id="text28805"><tspan
           sodipodi:role="line"
           id="tspan28803"
           style="font-size:5.29165px;fill:#999999;fill-opacity:1;stroke-width:0.132291"
           x="116.04669"
           y="77.073158">Pieces / Second</tspan></text>
      <text
         xml:space="preserve"
         style="font-weight:bold;font-size:9.525px;line-height:1.25;font-family:Arial;-inkscape-font-specification:'Arial Bold';letter-spacing:0px;word-spacing:0px;fill:#1a1a1a;fill-opacity:1;stroke-width:0.132291"
         x="116.02498"
         y="86.648582"
         id="text101542"><tspan
           sodipodi:role="line"
           id="tspan101540"
           style="font-size:9.525px;fill:#1a1a1a;fill-opacity:1;stroke-width:0.132291"
           x="116.02498"
           y="86.648582">2.644</tspan></text>
      <text
         xml:space="preserve"
         style="font-weight:bold;font-size:9.525px;line-height:1.25;font-family:Arial;-inkscape-font-specification:'Arial Bold';letter-spacing:0px;word-spacing:0px;fill:#cccccc;fill-opacity:1;stroke-width:0.132291"
         x="115.7604"
         y="86.384003"
         id="text45267"><tspan
           sodipodi:role="line"
           id="tspan45265"
           style="font-size:9.525px;fill:#cccccc;fill-opacity:1;stroke-width:0.132291"
           x="115.7604"
           y="86.384003">2.644</tspan></text>
      <text
         xml:space="preserve"
         style="font-weight:bold;font-size:5.29165px;line-height:1.25;font-family:Arial;-inkscape-font-specification:'Arial Bold';letter-spacing:0px;word-spacing:0px;fill:#999999;fill-opacity:1;stroke-width:0.132291"
         x="116.04669"
         y="55.107109"
         id="text70621"><tspan
           sodipodi:role="line"
           id="tspan70619"
           style="font-size:5.29165px;fill:#999999;fill-opacity:1;stroke-width:0.132291"
           x="116.04669"
           y="55.107109">Pieces</tspan></text>
      <text
         xml:space="preserve"
         style="font-weight:bold;font-size:9.525px;line-height:1.25;font-family:Arial;-inkscape-font-specification:'Arial Bold';letter-spacing:0px;word-spacing:0px;fill:#1a1a1a;fill-opacity:1;stroke-width:0.132291"
         x="116.02498"
         y="64.682533"
         id="text96201"><tspan
           sodipodi:role="line"
           id="tspan96199"
           style="font-size:9.525px;fill:#1a1a1a;fill-opacity:1;stroke-width:0.132291"
           x="116.02498"
           y="64.682533">102</tspan></text>
      <text
         xml:space="preserve"
         style="font-weight:bold;font-size:9.525px;line-height:1.25;font-family:Arial;-inkscape-font-specification:'Arial Bold';letter-spacing:0px;word-spacing:0px;fill:#cccccc;fill-opacity:1;stroke-width:0.132291"
         x="115.7604"
         y="64.417953"
         id="text70629"><tspan
           sodipodi:role="line"
           id="tspan70627"
           style="font-size:9.525px;fill:#cccccc;fill-opacity:1;stroke-width:0.132291"
           x="115.7604"
           y="64.417953">102</tspan></text>
      <text
         xml:space="preserve"
         style="font-weight:bold;font-size:5.29165px;line-height:1.25;font-family:Arial;-inkscape-font-specification:'Arial Bold';letter-spacing:0px;word-spacing:0px;fill:#999999;fill-opacity:1;stroke-width:0.132291"
         x="116.04669"
         y="33.141052"
         id="text70637"><tspan
           sodipodi:role="line"
           id="tspan70635"
           style="font-size:5.29165px;fill:#999999;fill-opacity:1;stroke-width:0.132291"
           x="116.04669"
           y="33.141052">Time</tspan></text>
      <text
         xml:space="preserve"
         style="font-weight:bold;font-size:9.525px;line-height:1.25;font-family:Arial;-inkscape-font-specification:'Arial Bold';letter-spacing:0px;word-spacing:0px;fill:#1a1a1a;fill-opacity:1;stroke-width:0.132291"
         x="116.02498"
         y="42.716476"
         id="text70641"><tspan
           sodipodi:role="line"
           id="tspan70639"
           style="font-size:9.525px;fill:#1a1a1a;fill-opacity:1;stroke-width:0.132291"
           x="116.02498"
           y="42.716476">00:38.58</tspan></text>
      <text
         xml:space="preserve"
         style="font-weight:bold;font-size:9.525px;line-height:1.25;font-family:Arial;-inkscape-font-specification:'Arial Bold';letter-spacing:0px;word-spacing:0px;fill:#cccccc;fill-opacity:1;stroke-width:0.132291"
         x="115.7604"
         y="42.451897"
         id="text70645"><tspan
           sodipodi:role="line"
           id="tspan70643"
           style="font-size:9.525px;fill:#cccccc;fill-opacity:1;stroke-width:0.132291"
           x="115.7604"
           y="42.451897">00:38.58</tspan></text>
      <text
         xml:space="preserve"
         style="font-weight:bold;font-size:5.29165px;line-height:1.25;font-family:Arial;-inkscape-font-specification:'Arial Bold';letter-spacing:0px;word-spacing:0px;fill:#999999;fill-opacity:1;stroke-width:0.132291"
         x="116.04669"
         y="11.174997"
         id="text70653"><tspan
           sodipodi:role="line"
           id="tspan70651"
           style="font-size:5.29165px;fill:#999999;fill-opacity:1;stroke-width:0.132291"
           x="116.04669"
           y="11.174997">Score</tspan></text>
      <text
         xml:space="preserve"
         style="font-weight:bold;font-size:9.525px;line-height:1.25;font-family:Arial;-inkscape-font-specification:'Arial Bold';letter-spacing:0px;word-spacing:0px;fill:#cccccc;fill-opacity:1;stroke-width:0.132291"
         x="115.48445"
         y="21.438128"
         id="text70661"><tspan
           sodipodi:role="line"
           id="tspan70659"
           style="font-size:9.525px;fill:#cccccc;fill-opacity:1;stroke-width:0.132291"
           x="115.48445"
           y="21.438128">10,985,518</tspan></text>
    </g>
  </g>
</svg>
